<svg width="150" height="150" viewBox="0 0 150 150" fill="none" xmlns="http://www.w3.org/2000/svg">
<path d="M114.282 33.6934C116.563 33.6934 118.412 31.8441 118.412 29.5628C118.412 27.2815 116.563 25.4321 114.282 25.4321C112 25.4321 110.151 27.2815 110.151 29.5628C110.151 31.8441 112 33.6934 114.282 33.6934Z" fill="black"/>
<path d="M144.484 28.186C138.105 28.186 132.63 28.6348 127.342 23.3465L120.497 16.5027C117.398 13.4041 113.197 11.6633 108.814 11.6633H89.5995H89.4838C85.0936 11.6633 80.8838 13.403 77.7737 16.5024L77.6729 16.6029L64.7808 29.4947C62.0927 32.1824 60.583 35.828 60.583 39.6293V43.9561C60.583 51.7968 66.8058 59.8846 74.5618 61.0412C75.4224 61.1693 76.2709 61.2312 77.1056 61.2312V62.3313C63.533 70.1534 35.6847 85.927 30.1707 91.3998C25.5302 96.042 22.0302 103.381 22.0302 110.799C22.0302 114.11 22.4632 117.478 24.3884 121.856L8.26131 121.814C3.699 121.814 0 125.513 0 130.076C0 134.638 3.699 138.337 8.26131 138.337H77.0237C81.1151 138.337 83.9511 133.943 81.9732 130.362C80.2119 127.174 77.4285 124.631 74.0654 123.171C75.9573 119.414 77.0557 116.304 81.8011 116.304H88.1207V132.829C88.1207 135.871 90.5867 138.337 93.6282 138.337H114.119C118.342 138.337 121.072 133.73 118.939 130.083C116.401 125.74 111.918 122.672 106.683 122.02L107.908 112.221C114.528 108.157 119.407 101.405 120.749 93.5884C122.626 82.6507 117.97 72.7726 110.151 66.8637V55.7233H126.673C132.732 55.7233 140.239 51.4725 143.356 46.2772C144.67 44.0886 150.013 36.1519 150 33.6739C149.985 30.8127 147.695 28.186 144.484 28.186ZM77.0815 55.6648C70.3478 55.6648 66.0905 49.9607 66.0905 44.0962V39.6306C66.0905 37.3412 66.9645 35.0993 68.6749 33.3896L81.5671 20.4981C83.2975 18.7681 85.6199 17.6166 88.1207 17.3099V44.7086C88.1207 50.5999 83.3766 55.6648 77.0815 55.6648ZM8.26131 132.829C6.7433 132.829 5.50754 131.594 5.50754 130.076C5.50754 128.557 6.7433 127.322 8.24651 127.322C28.1914 127.373 23.2456 127.36 27.7136 127.372C29.7535 130.051 30.0853 130.504 33.2091 132.829H8.26131ZM138.634 43.4439C136.399 47.1684 131.016 50.2161 126.673 50.2161H112.626C109.041 50.2161 106.013 47.9071 104.872 44.7086H99.1358C99.8404 48.167 101.873 51.1207 104.643 53.1097V69.6051C112.577 75.6021 117.076 82.4329 115.321 92.6569C113.927 100.775 109.016 105.079 102.771 108.912C101.448 119.497 101.048 122.698 100.534 126.805C106.089 127.496 111.092 127.507 114.119 132.83C102.602 132.83 105.119 132.83 93.6282 132.83C93.6282 119.626 93.6282 118.562 93.6282 105.292H88.1207V110.797C86.6619 110.797 85.5012 110.797 81.8011 110.797C80.1014 110.797 78.5162 111.248 77.013 111.883C77.2832 104.399 74.5752 96.8643 69.0381 91.3265L65.1439 95.2207C73.3095 103.39 72.8097 115.341 68.1558 122.632L66.5046 125.896C70.7888 127.754 74.895 128.914 77.0233 132.83H49.5514C37.3487 132.819 27.7119 122.99 27.567 111.096C27.4499 104.507 30.4392 97.6912 36.4899 93.1839C42.5516 88.6688 76.0636 69.2881 82.6131 65.514C82.6131 64.0163 82.6159 61.6439 82.609 60.2206C89.0136 57.9453 93.6282 51.8935 93.6282 44.7086V17.1709H108.816C111.737 17.1709 114.538 18.3312 116.604 20.3969L123.446 27.2404C127.368 31.1624 132.525 33.3496 138.03 33.5961C138.612 35.5984 139.966 37.2503 141.763 38.229L138.634 43.4439Z" fill="black"/>
</svg>
