<svg width="238" height="146" viewBox="0 0 238 146" fill="none" xmlns="http://www.w3.org/2000/svg">
<path d="M11.3004 26.4879C17.2564 28.3081 21.8513 29.9184 21.8973 29.9347C21.9575 29.956 22.0281 29.978 22.0897 29.9955C22.6542 30.157 35.9098 34.0782 35.724 45.7494C35.4439 63.332 40.8545 74.6481 52.2499 80.319C52.7736 80.9852 53.3438 81.6478 53.9732 82.3027C57.4833 85.9734 59.7818 90.3188 60.6486 94.9231L64.5473 115.444C65.1802 118.759 65.0589 122.141 64.1894 125.42L62.1363 133.187C62.0502 133.52 61.8437 133.823 61.5437 134.058C61.2436 134.294 60.8639 134.45 60.4538 134.507L60.2671 134.531C58.646 134.747 57.184 135.454 56.1718 136.512C55.1596 137.569 54.6713 138.899 54.8039 140.236C54.9365 141.574 55.6804 142.823 56.8876 143.733C58.0949 144.643 59.6771 145.149 61.3197 145.149H74.191C75.8003 145.152 77.3707 144.746 78.6843 143.986C79.9979 143.226 80.9895 142.151 81.5215 140.91L85.1064 141.153C86.0941 141.274 87.091 141.34 88.0898 141.349C90.1785 141.349 92.2036 140.975 93.4307 139.657C95.2108 137.745 93.9942 135.47 93.189 133.964C93.1094 133.816 93.0321 133.671 92.9596 133.531C90.4704 128.702 91.2496 123.625 92.3278 116.598C93.3904 109.675 94.6923 101.18 93.6032 89.3869C95.3767 89.505 97.3085 89.5805 99.3853 89.5805C99.9335 89.5805 100.492 89.5754 101.06 89.565C109.517 89.4063 121.474 87.9264 134.601 82.4836C140.661 88.6765 147.354 94.4379 154.607 99.7057C161.797 104.992 170.203 114.192 171.666 121.902L171.821 122.709C172.212 124.734 172.656 127.029 172.576 128.828C172.549 129.198 172.384 129.553 172.105 129.845C171.825 130.137 171.443 130.352 171.009 130.462C167.965 131.25 165.055 132.352 162.351 133.741C161.186 134.377 160.302 135.302 159.829 136.379C159.356 137.456 159.318 138.63 159.722 139.726C160.126 140.822 160.95 141.783 162.073 142.468C163.196 143.152 164.558 143.524 165.958 143.529C166.07 143.529 166.183 143.527 166.296 143.522L173.642 143.251C174.205 144.078 175.03 144.767 176.029 145.245C177.029 145.723 178.167 145.974 179.325 145.97L193.642 145.393C194.8 145.347 195.931 145.092 196.955 144.647C197.978 144.202 198.868 143.577 199.562 142.818C200.256 142.06 200.736 141.185 200.968 140.257C201.2 139.329 201.179 138.37 200.905 137.45L199.314 132.115C199.102 131.406 199.017 130.675 199.06 129.946L200.406 107.348C200.517 105.449 200.087 103.555 199.151 101.815C190.545 85.8618 191.405 82.652 192.829 77.3339C193.838 73.5656 195.093 68.876 194.005 59.2191C193.718 56.2152 192.859 53.2664 191.458 50.4793C191.174 49.9658 191.148 49.3818 191.386 48.8529C191.624 48.3241 192.107 47.8929 192.73 47.6521C236.97 30.9757 237.899 9.76999 237.918 8.87537C237.928 8.35715 237.726 7.85107 237.343 7.4376C236.961 7.02412 236.42 6.72698 235.807 6.59343C235.195 6.45988 234.545 6.49757 233.961 6.70053C233.377 6.90348 232.894 7.26005 232.587 7.71352C228.724 13.419 215.751 27.7535 178.808 37.6153C176.301 38.2711 173.62 38.3429 171.066 37.8225C159.57 35.5375 144.566 35.8086 125.571 36.1541C121.545 36.2269 117.382 36.302 113.072 36.3547C94.7871 36.5785 81.9627 34.2475 73.8446 29.2287C66.9369 24.9573 64.2411 19.2627 61.6344 13.7555C61.2183 12.8768 60.8074 12.0093 60.3865 11.1607C56.8391 4.01071 47.4849 -0.0646744 34.7089 0.000776424C31.8228 0.0151683 29.0103 0.746143 26.6443 2.09675L23.9736 3.61219C22.6816 4.34418 21.1826 4.79496 19.6181 4.92198L4.17567 6.16787C3.50639 6.22149 2.85945 6.39367 2.27991 6.67242C1.70037 6.95118 1.20215 7.32981 0.819952 7.78196C0.437751 8.2341 0.180752 8.7489 0.0668513 9.29048C-0.047049 9.83207 -0.0151128 10.3874 0.160436 10.9179C2.20123 17.0908 5.79039 24.8024 11.3004 26.4879ZM81.7016 136.254C81.6068 135.516 81.512 134.765 81.4172 134.025C81.1172 131.701 80.8338 129.504 80.7584 128.334C80.5831 125.59 82.1262 113.293 84.9926 94.5959C85.3051 92.5409 85.4184 90.4689 85.3315 88.3993C86.0751 88.5322 86.9159 88.6677 87.8434 88.7978C89.0481 100.627 87.7458 109.13 86.6879 116.021C85.5438 123.474 84.6405 129.36 87.7211 135.336C87.8031 135.495 87.8908 135.659 87.9799 135.827C88.1026 136.056 88.2808 136.389 88.424 136.695L81.7016 136.254ZM173.263 138.614L166.029 138.88C165.836 138.897 165.642 138.856 165.484 138.765C165.325 138.674 165.212 138.539 165.166 138.385C165.095 138.248 165.088 138.095 165.146 137.954C165.204 137.814 165.324 137.695 165.482 137.622C167.765 136.459 170.219 135.537 172.785 134.877C174.322 134.468 175.669 133.687 176.648 132.636C177.627 131.585 178.189 130.315 178.261 128.996C178.361 126.747 177.872 124.215 177.44 121.982L177.287 121.188C175.602 112.307 166.593 102.263 158.412 96.2472C151.639 91.3245 145.366 85.9605 139.656 80.2079C140.897 79.6057 142.145 78.9709 143.4 78.2928C148.917 85.0908 157.103 93.1559 169.258 102.092C176.472 107.334 181.258 114.444 182.813 122.229C183.425 125.451 183.108 130.749 182.26 133.08C179.524 133.911 177.004 135.156 174.832 136.75C174.152 137.273 173.617 137.908 173.263 138.614ZM20.1769 9.54886C22.7058 9.3436 25.129 8.61475 27.2173 7.43119L29.8879 5.91614C31.3103 5.10136 33.0022 4.65916 34.7392 4.64817C48.8736 4.57808 53.5703 9.79401 55.1139 12.9047C55.5239 13.7304 55.9234 14.5746 56.3282 15.4298C57.1187 17.1001 57.9396 18.8289 58.8913 20.5632C58.8358 25.4681 54.8263 29.8681 51.4058 32.7266C51.1119 32.9753 50.7492 33.1629 50.3484 33.2735C49.9475 33.3842 49.52 33.4148 49.1016 33.3627C48.6833 33.3107 48.2863 33.1775 47.9439 32.9743C47.6016 32.7711 47.3237 32.5038 47.1337 32.1949C45.3048 29.2515 45.1763 26.2899 46.7512 23.3888C49.5769 18.1845 48.8991 14.2466 47.8333 11.8598C47.5747 11.2808 47.0453 10.8095 46.3615 10.5495C45.6777 10.2896 44.8955 10.2622 44.187 10.4735C43.4785 10.6848 42.9017 11.1174 42.5836 11.6762C42.2654 12.2349 42.2319 12.8741 42.4905 13.4531C43.519 15.7555 43.2014 18.4641 41.5531 21.5043C39.2829 25.6869 39.4592 30.1097 42.0625 34.2994C42.656 35.2695 43.5269 36.1083 44.6015 36.7448C45.6761 37.3813 46.9227 37.7967 48.2356 37.9557C48.6644 38.0097 49.0976 38.0369 49.5314 38.037C50.6403 38.0371 51.7379 37.8546 52.7586 37.5004C53.7793 37.1462 54.7022 36.6276 55.4722 35.9755C58.232 33.6692 61.3088 30.4943 63.0904 26.7384C69.7308 34.4973 82.0433 41.016 110.746 41.0156C111.535 41.0156 112.341 41.0102 113.156 41.0005C117.486 40.9475 121.659 40.8719 125.695 40.7991C143.538 40.4769 158.949 40.1977 169.721 42.337C173.303 43.0625 177.061 42.9567 180.574 42.0315C190.179 39.4676 209.98 33.2789 224.695 22.67C215.645 32.4888 201.244 39.3232 190.35 43.4315C188.375 44.1744 186.837 45.5218 186.066 47.1832C185.296 48.8445 185.356 50.6866 186.233 52.3123C187.398 54.6524 188.11 57.1266 188.343 59.6459C189.351 68.5859 188.201 72.8859 187.274 76.3409C185.513 82.9177 185.01 87.1213 193.949 103.69C194.529 104.77 194.796 105.945 194.727 107.123L193.382 129.72C193.311 130.896 193.448 132.073 193.79 133.217L195.381 138.551C195.456 138.806 195.462 139.072 195.397 139.33C195.332 139.587 195.198 139.83 195.005 140.04C194.812 140.251 194.565 140.424 194.28 140.547C193.996 140.67 193.682 140.74 193.36 140.753L179.382 141.323C179.203 141.336 179.025 141.3 178.874 141.222C178.722 141.144 178.607 141.027 178.545 140.889C178.468 140.765 178.445 140.623 178.478 140.487C178.512 140.35 178.601 140.227 178.731 140.136C181.396 138.087 185.154 137.176 185.185 137.169C185.549 137.084 185.889 136.941 186.184 136.747C186.48 136.553 186.725 136.313 186.905 136.041C188.939 132.973 189.169 125.391 188.434 121.518C186.677 112.675 181.25 104.596 173.063 98.6383C163.248 91.4228 149.971 80.1971 142.461 67.6913C138.032 60.3163 137.702 55.909 137.694 55.7936C137.666 55.1777 137.34 54.596 136.788 54.1765C136.235 53.757 135.502 53.534 134.748 53.5566C133.994 53.5792 133.282 53.8455 132.769 54.297C132.256 54.7485 131.983 55.3481 132.01 55.964C132.03 56.4337 132.458 63.2949 140.385 74.3522C125.065 82.6629 110.716 84.7019 101.198 84.9111C95.6646 85.0636 90.1324 84.5895 84.7585 83.5021C84.2737 80.9842 83.4916 78.5106 82.4234 76.1159L79.2172 68.9511C79.092 68.6613 78.8977 68.3946 78.6455 68.1665C78.3933 67.9384 78.0882 67.7535 77.748 67.6225C77.4077 67.4914 77.039 67.4168 76.6632 67.4031C76.2874 67.3893 75.912 67.4365 75.5588 67.5421C75.2055 67.6477 74.8814 67.8095 74.6052 68.0182C74.3289 68.2269 74.1062 68.4783 73.9497 68.7578C73.7932 69.0373 73.7061 69.3394 73.6936 69.6466C73.681 69.9538 73.7431 70.26 73.8763 70.5475L77.0821 77.7122C79.4078 82.9236 80.1848 88.512 79.3489 94.0169C77.2636 107.625 74.829 124.667 75.0792 128.575C75.1617 129.868 75.4531 132.124 75.7612 134.511C75.9403 135.9 76.1257 137.335 76.2764 138.634C76.3036 138.871 76.2699 139.11 76.1774 139.335C76.0849 139.561 75.9357 139.769 75.7393 139.944C75.543 140.12 75.3038 140.26 75.0371 140.356C74.7705 140.452 74.4823 140.501 74.191 140.501H61.3197C61.1062 140.5 60.9007 140.434 60.7437 140.316C60.5868 140.198 60.4898 140.036 60.4719 139.862C60.454 139.688 60.5166 139.515 60.6473 139.377C60.7779 139.239 60.9671 139.146 61.1775 139.116L61.3325 139.096C62.8755 138.891 64.3072 138.311 65.4415 137.431C66.5758 136.552 67.3604 135.415 67.6933 134.167L69.7464 126.4C70.7635 122.564 70.9057 118.608 70.1658 114.73L66.2686 94.209C65.2516 88.8171 62.558 83.7288 58.4458 79.431C49.748 70.3814 53.9822 59.1153 54.0239 59.0084C54.1387 58.718 54.1824 58.412 54.1525 58.1078C54.1226 57.8036 54.0197 57.5073 53.8496 57.2356C53.6795 56.9639 53.4457 56.7222 53.1613 56.5244C52.8769 56.3266 52.5477 56.1765 52.1923 56.0827C51.837 55.9888 51.4625 55.9531 51.0902 55.9775C50.718 56.002 50.3553 56.0861 50.0228 56.2251C49.6903 56.364 49.3946 56.5552 49.1525 56.7875C48.9105 57.0199 48.7268 57.2889 48.6119 57.5793C47.1921 61.69 46.8621 66.0009 47.6441 70.2241C43.2924 64.6685 41.2393 56.5918 41.4109 45.8086C41.6004 33.8087 30.1974 27.3856 24.0447 25.6292C23.3305 25.3802 18.9759 23.8717 13.2943 22.134C11.4213 21.5628 8.48285 17.8073 5.9866 10.6917L20.1769 9.54886Z" fill="black"/>
</svg>
